<?xml version="1.0" encoding="UTF-8" standalone="no"?>
<svg
   xmlns:dc="http://purl.org/dc/elements/1.1/"
   xmlns:cc="http://creativecommons.org/ns#"
   xmlns:rdf="http://www.w3.org/1999/02/22-rdf-syntax-ns#"
   xmlns:svg="http://www.w3.org/2000/svg"
   xmlns="http://www.w3.org/2000/svg"
   xmlns:sodipodi="http://sodipodi.sourceforge.net/DTD/sodipodi-0.dtd"
   xmlns:inkscape="http://www.inkscape.org/namespaces/inkscape"
   id="svg3239"
   sodipodi:docname="openclipart.svg"
   inkscape:export-filename="/home/rejon/Pictures/openclipart-scissors-blue.png"
   viewBox="0 0 470 470"
   inkscape:export-xdpi="90"
   version="1.1"
   inkscape:export-ydpi="90"
   inkscape:version="0.48.5 r10040"
   width="100%"
   height="100%">
  <defs
     id="defs10" />
  <sodipodi:namedview
     id="namedview4055"
     fit-margin-left="0"
     inkscape:zoom="0.45601172"
     borderopacity="1"
     inkscape:current-layer="g5923"
     inkscape:cx="-14.271012"
     inkscape:cy="55.866734"
     inkscape:window-maximized="1"
     inkscape:snap-bbox="true"
     showgrid="false"
     fit-margin-right="0"
     inkscape:snap-global="false"
     bordercolor="#666666"
     inkscape:window-x="-2"
     guidetolerance="10"
     objecttolerance="10"
     inkscape:window-width="1920"
     inkscape:window-y="-3"
     fit-margin-bottom="0"
     inkscape:snap-page="true"
     inkscape:pageopacity="1"
     inkscape:pageshadow="0"
     pagecolor="#ffffff"
     gridtolerance="10"
     inkscape:window-height="1025"
     fit-margin-top="0" />
  <title
     id="title2996">Openclipart ScissorsBlue</title>
  <g
     id="layer1"
     style="fill:#204a87"
     transform="translate(-225.45545,-217.06118)">
    <g
       id="g5923"
       style="fill:#204a87"
       transform="matrix(2.4048,0,0,2.4048,-560.81,151.28)">
      <rect
         style="fill:#204a87;fill-opacity:1"
         id="rect3776"
         width="195.44244"
         height="195.44244"
         x="326.9567"
         y="27.354122"
         rx="0"
         ry="0" />
      <path
         id="path4756"
         d="m 359.18457,60.91717 c -9.89,-0.085 -20.03,4.256 -23,12.361 -4.42,9.77 2.67,21.199999 14.76,24.71 0.04,0.01 0.1,0 0.14,0 13.19,4.77 29.61,7.1 43.9,21.89 l 5.36,5.56 -4.83,4.92 c -14.34,14.77 -30.71,17.04 -43.91,21.78 -0.03,0.02 -0.1,-0.01 -0.13,0 -12.07,3.49 -19.06,14.85 -14.77,24.62 0.01,0.02 -0.02,0.07 0,0.1 3.67,9.88 18.08,14.25 29.66,11.63 0.04,-0.01 0.1,0 0.13,0 11.86,-2.07 21.57,-11.72 18.82,-21.47 -1.36,-4.82 -3.09,-7.05 -4.7,-8.38 -0.81,-0.67 -1.51,-1.09 -1.96,-1.47 -0.46,-0.38 -2.36,-1.45 -2.36,-1.45 1.18,-0.86 1.87,-1.27 2.88,-1.9 1.52,-0.99 4.16,-2.2 7.58,-3.67 6.78,-2.9 16.76,-7.01 28.23,-13.61 20.74,11.79 47.69,27.06 62.59,35.5 14.9,8.44 30.15,4.19 36.46,0.32 l -79.9,-46.9 80.36,-47.35 c -12.46,-7.68 -26.67,-4.43 -36.14,0.19 -21.04,11.94 -42.16,23.82 -63.24,35.72 -9.62,-5.26 -19.94,-10.08 -28.88,-13.93 -3.43,-1.47 -6.07,-2.67 -7.58,-3.67 -0.76,-0.49 -2.68,-1.570001 -2.68,-1.570001 1.75,-1.02 3.61,-2.909999 4.96,-4.339999 1.35,-1.44 2.94,-3.57 3.86,-7.28 2.41,-9.81 -6.97,-19.49 -18.82,-21.578 -2.3,-0.507 -4.77,-0.582 -6.8,-0.733 z m -1.31,8.271 c 4.41,-0.2 8.96,1 11.89,3.35 4.39,3.53 5.22,8.38 3.53,12.36 -1.69,3.98 -5.75,6.93 -11.5,6.92 h -0.13 c -5.27,0.24 -10.4,-2.19 -13.46,-5.77 -3.06,-3.57 -3.93,-8.01 -0.91,-11.83 v -0.11 c 2.08,-3.17 6.17,-4.71 10.58,-4.92 z m 3.4,89.13 c 0.39,0 0.79,-0.01 1.04,0 5.75,0 9.82,2.94 11.5,6.92 1.69,3.98 0.87,8.84 -3.52,12.35 -2.94,2.35 -7.61,3.67 -12.03,3.46 -4.41,-0.21 -8.38,-1.85 -10.45,-5.03 l -0.13,-0.1 c -2.91,-3.71 -2.07,-7.9 0.78,-11.42 2.85,-3.51 7.73,-6.1 12.81,-6.18 z"
         style="text-indent:0;text-transform:none;block-progression:tb;color:#000000;fill:#ffffff;fill-opacity:1"
         inkscape:connector-curvature="0" />
    </g>
  </g>
  <metadata
     id="metadata8">
    <rdf:RDF>
      <cc:Work>
        <dc:format>image/svg+xml</dc:format>
        <dc:type
           rdf:resource="http://purl.org/dc/dcmitype/StillImage" />
        <cc:license
           rdf:resource="http://creativecommons.org/licenses/publicdomain/" />
        <dc:publisher>
          <cc:Agent
             rdf:about="http://openclipart.org/">
            <dc:title>Openclipart</dc:title>
          </cc:Agent>
        </dc:publisher>
      </cc:Work>
      <cc:License
         rdf:about="http://creativecommons.org/licenses/publicdomain/">
        <cc:permits
           rdf:resource="http://creativecommons.org/ns#Reproduction" />
        <cc:permits
           rdf:resource="http://creativecommons.org/ns#Distribution" />
        <cc:permits
           rdf:resource="http://creativecommons.org/ns#DerivativeWorks" />
      </cc:License>
    </rdf:RDF>
  </metadata>
</svg>
