<?xml version="1.0" encoding="UTF-8" standalone="no"?>
<!-- Generator: Adobe Illustrator 20.1.0, SVG Export Plug-In . SVG Version: 6.00 Build 0)  -->

<svg
   xmlns:dc="http://purl.org/dc/elements/1.1/"
   xmlns:cc="http://creativecommons.org/ns#"
   xmlns:rdf="http://www.w3.org/1999/02/22-rdf-syntax-ns#"
   xmlns:svg="http://www.w3.org/2000/svg"
   xmlns="http://www.w3.org/2000/svg"
   xmlns:sodipodi="http://sodipodi.sourceforge.net/DTD/sodipodi-0.dtd"
   xmlns:inkscape="http://www.inkscape.org/namespaces/inkscape"
   version="1.1"
   id="Ebene_1"
   x="0px"
   y="0px"
   viewBox="0 0 70.9 70.9"
   xml:space="preserve"
   sodipodi:docname="lmvz.svg"
   width="70.900002"
   height="70.900002"
   inkscape:version="0.92.4 (5da689c313, 2019-01-14)"><metadata
   id="metadata21"><rdf:RDF><cc:Work
       rdf:about=""><dc:format>image/svg+xml</dc:format><dc:type
         rdf:resource="http://purl.org/dc/dcmitype/StillImage" /><dc:title></dc:title></cc:Work></rdf:RDF></metadata><defs
   id="defs19" /><sodipodi:namedview
   pagecolor="#ffffff"
   bordercolor="#666666"
   borderopacity="1"
   objecttolerance="10"
   gridtolerance="10"
   guidetolerance="10"
   inkscape:pageopacity="1"
   inkscape:pageshadow="2"
   inkscape:window-width="640"
   inkscape:window-height="480"
   id="namedview17"
   showgrid="false"
   inkscape:zoom="3.3286318"
   inkscape:cx="-145.08687"
   inkscape:cy="35.450001"
   inkscape:current-layer="Ebene_1"
   inkscape:pagecheckerboard="false" />
<rect
   style="opacity:1;fill:#ffffff;fill-opacity:1;fill-rule:nonzero;stroke:none;stroke-width:0.86820459;stroke-linecap:round;stroke-miterlimit:4;stroke-dasharray:none;stroke-opacity:1"
   id="rect820"
   width="70.900002"
   height="70.900002"
   x="0"
   y="1.5258789e-06"
   rx="0"
   ry="0" /><g
   id="g14"
   transform="translate(12.550001,-3.0517578e-6)">
	<path
   d="m 12.5,20.1 c 0.6,0 1.7,-0.3 2.2,-0.3 1.4,0 2.5,1.1 2.5,2.5 0,1.4 -1.1,2.5 -2.5,2.5 H 2.8 C 1.2,24.8 0,23.6 0,22 0,21.4 0.2,20.1 0.2,19.5 V 5.3 C 0.2,4.6 0,3.4 0,2.8 0,1.2 1.2,0 2.8,0 4.3,0 5.6,1.2 5.6,2.8 5.6,3.4 5.4,4.6 5.4,5.3 V 20 h 7.1 z"
   id="path2"
   inkscape:connector-curvature="0" />
	<path
   d="m 22.1,22.2 c 0,-0.6 0.2,-1.8 0.2,-2.5 V 5.3 c 0,-0.7 -0.2,-1.9 -0.2,-2.4 0,-1.5 1.1,-2.7 2.5,-2.7 h 0.6 c 1.2,0 2,0.8 2.4,1.9 l 0.4,0.8 4.9,10.6 c 0.4,0.9 0.8,2 1.1,2.7 0.3,-0.7 0.7,-1.8 1.1,-2.7 L 40,3 40.3,2 c 0.4,-1 1.2,-1.9 2.3,-1.9 h 0.6 c 1.5,0 2.5,1.2 2.5,2.7 0,0.6 -0.2,1.8 -0.2,2.4 v 14.4 c 0,0.7 0.2,1.9 0.2,2.5 0,1.6 -1.2,2.8 -2.7,2.8 -1.6,0 -2.7,-1.2 -2.7,-2.8 0,-0.7 0.1,-1.9 0.1,-2.5 l 0.2,-6.1 c 0,-0.9 0.1,-2.3 0.1,-3.4 L 37,18.5 c -0.3,0.7 -0.4,0.9 -0.6,1.3 -0.4,0.9 -1.1,1.5 -2.5,1.5 -1.4,0 -2.1,-0.6 -2.5,-1.4 -0.2,-0.4 -0.2,-0.7 -0.6,-1.4 L 27,10.2 c 0,0 0.1,2.4 0.2,3.3 l 0.2,6.1 c 0,0.7 0.1,1.8 0.1,2.5 0,1.6 -1.1,2.8 -2.7,2.8 -1.5,0.1 -2.7,-1.2 -2.7,-2.7 z"
   id="path4"
   inkscape:connector-curvature="0" />
	<path
   d="m 28.7,32.4 c 0.4,0 1.5,0.2 2,0.2 h 11.1 c 0.5,0 1.4,-0.2 1.9,-0.2 1.2,0 2.1,0.9 2.1,2.1 0,1.1 -0.9,2.1 -2.1,2.1 -0.4,0 -1.4,-0.2 -1.9,-0.2 h -11 c -0.5,0 -1.6,0.2 -2,0.2 -1.2,0 -2.1,-0.9 -2.1,-2.1 -0.1,-1.1 0.8,-2.1 2,-2.1 z"
   id="path6"
   inkscape:connector-curvature="0" />
	<path
   d="m 2.1,66.7 c 0.4,0 1.5,0.2 2,0.2 h 14.4 c 0.5,0 1.4,-0.2 1.9,-0.2 1.2,0 2.1,0.9 2.1,2.1 0,1.1 -0.9,2.1 -2.1,2.1 -0.4,0 -1.4,-0.2 -1.9,-0.2 H 4.1 c -0.5,0 -1.6,0.2 -2,0.2 C 0.9,70.9 0,70 0,68.8 0,67.7 0.9,66.7 2.1,66.7 Z"
   id="path8"
   inkscape:connector-curvature="0" />
	<path
   d="m 21.9,35.1 c 0,0.3 -0.1,0.7 -0.3,1.1 -0.3,0.7 -0.7,1.6 -0.9,2.1 l -6,15.8 c -0.2,0.4 -0.3,0.9 -0.5,1.7 -0.4,1.3 -1.6,1.9 -3,1.9 H 10.8 C 9.4,57.7 8.2,57.2 7.8,55.8 7.6,55 7.4,54.6 7.2,54.1 L 1.2,38.3 C 1,37.8 0.6,37 0.2,36.3 0.1,35.9 0,35.4 0,35.1 0,33.6 1.2,32.3 2.8,32.3 3.9,32.3 5,33 5.3,34.2 5.5,35 5.5,35.6 6,37 l 4.2,11.9 c 0.3,0.9 0.7,2 0.9,2.9 0.2,-0.9 0.5,-1.9 0.8,-2.8 L 16,37 c 0.5,-1.5 0.4,-1.9 0.7,-2.7 0.4,-1.2 1.4,-2 2.6,-2 1.6,0 2.6,1.3 2.6,2.8 z"
   id="path10"
   inkscape:connector-curvature="0" />
	<path
   d="m 29.7,70.9 c -1.5,0 -2.5,-1 -2.5,-2.3 0,-0.4 0,-0.9 0.6,-1.7 l 9.6,-14 c 0.5,-0.7 1.1,-1.4 1.7,-2.1 h -6.9 c -0.7,0 -1.5,0.3 -2.1,0.3 -1.4,0 -2.5,-0.9 -2.5,-2.3 0,-1.4 1.1,-2.4 2.5,-2.4 h 12.6 c 1.5,0 2.5,0.9 2.5,2.3 0,0.4 -0.2,1.1 -0.7,1.8 l -9.3,13.8 c -0.5,0.8 -1.1,1.6 -1.7,2.2 h 7.6 c 0.8,0 1.6,-0.3 2.2,-0.3 1.4,0 2.4,1 2.4,2.3 0,1.5 -1.2,2.5 -2.5,2.5 H 29.7 Z"
   id="path12"
   inkscape:connector-curvature="0" />
</g>
</svg>